<?xml version="1.0" encoding="iso-8859-1"?>
<!-- Generator: Adobe Illustrator 16.0.0, SVG Export Plug-In . SVG Version: 6.00 Build 0)  -->
<!DOCTYPE svg PUBLIC "-//W3C//DTD SVG 1.1//EN" "http://www.w3.org/Graphics/SVG/1.1/DTD/svg11.dtd">
<svg xmlns="http://www.w3.org/2000/svg" xmlns:xlink="http://www.w3.org/1999/xlink" version="1.1" id="Capa_1" x="0px" y="0px" width="512px" height="512px" viewBox="0 0 100 100" style="enable-background:new 0 0 100 100;" xml:space="preserve">
<g>
	<g>
		<circle cx="76" cy="28.4" r="2.4" fill="#b14c5a"/>
		<path d="M26,73h52V33H26V73z M57,55.484l9.12-3.58L57,48.375V44.73l13,5.629v3.115l-13,5.683V55.484z M48.88,59l3.62-14.958    c0.189-0.795,0.371-1.34,0.544-1.634c0.174-0.294,0.511-0.441,1.013-0.441c0.434,0,0.764,0.104,0.992,0.312    s0.344,0.494,0.344,0.856c0,0.268-0.092,0.756-0.271,1.466l-3.635,14.958c-0.119,0.493-0.225,0.883-0.315,1.168    c-0.09,0.285-0.229,0.51-0.415,0.668c-0.186,0.16-0.457,0.239-0.811,0.239c-0.882,0-1.324-0.382-1.324-1.141    C48.62,60.293,48.708,59.796,48.88,59z M34,50.334l13-5.656v3.697l-9.094,3.504L47,55.459v3.671l-13-5.655V50.334z" fill="#b14c5a"/>
		<path d="M50,0C22.386,0,0,22.386,0,50s22.386,50,50,50c27.613,0,50-22.386,50-50S77.613,0,50,0z M82,73.398    C82,75.389,80.389,77,78.4,77H25.6c-1.988,0-3.6-1.611-3.6-3.602V27.601C22,25.612,23.612,24,25.6,24h52.8    c1.988,0,3.6,1.612,3.6,3.601V73.398z" fill="#b14c5a"/>
		<circle cx="62.8" cy="28.4" r="2.4" fill="#b14c5a"/>
		<path d="M69.4,30.8c1.322,0,2.398-1.076,2.398-2.4c0-1.324-1.076-2.4-2.398-2.4c-1.323,0-2.4,1.076-2.4,2.4    C67,29.724,68.077,30.8,69.4,30.8z" fill="#b14c5a"/>
	</g>
</g>
<g>
</g>
<g>
</g>
<g>
</g>
<g>
</g>
<g>
</g>
<g>
</g>
<g>
</g>
<g>
</g>
<g>
</g>
<g>
</g>
<g>
</g>
<g>
</g>
<g>
</g>
<g>
</g>
<g>
</g>
</svg>
