<?xml version="1.0" encoding="iso-8859-1"?>
<!-- Generator: Adobe Illustrator 19.0.0, SVG Export Plug-In . SVG Version: 6.00 Build 0)  -->
<svg xmlns="http://www.w3.org/2000/svg" xmlns:xlink="http://www.w3.org/1999/xlink" version="1.1" id="Capa_1" x="0px" y="0px" viewBox="0 0 489.6 489.6" style="enable-background:new 0 0 489.6 489.6;" xml:space="preserve" width="512px" height="512px">
<g>
	<g>
		<g>
			<path d="M0,319.85v-223c0-17.6,14.2-31.8,31.8-31.8h330.1c17.6,0,31.8,14.2,31.8,31.8v50.6h-0.4h-42.9v-39h-307v199.6h238.5v43.7     h-49.5v35.5h25.3c4.2,0,7.6,3.4,7.6,7.6v22.1c0,4.2-3.4,7.6-7.6,7.6H136c-4.2,0-7.6-3.4-7.6-7.6v-22.2c0-4.2,3.4-7.6,7.6-7.6     h25.3v-35.5H31.8C14.2,351.65,0,337.45,0,319.85z M489.6,196.15v183.2v24.8c0,11.2-8.8,20.3-19.7,20.3h-34.6l0,0h-32.4H398h-4.9     h-32.4l0,0h-34.6c-10.9,0-19.7-9.1-19.7-20.3v-24.8v-183.2v-3.7c0-8.4,5-15.6,12-18.7c2.4-1,4.9-1.6,7.7-1.6H393h4.9h4.9h66.9     c2.7,0,5.3,0.6,7.7,1.6c7.1,3.1,12,10.3,12,18.7v3.7H489.6z M412.3,409.15c0-2.8-2.2-5.1-5-5.1h-9.2h-9.2c-2.7,0-5,2.3-5,5.1     c0,2.8,2.2,5.1,5,5.1h9.2h9.2C410.1,414.25,412.3,411.95,412.3,409.15z M457.4,205.55h-59.3h-59.3v185.5h59.3h59.3L457.4,205.55     L457.4,205.55z" fill="#b14c5a"/>
		</g>
	</g>
</g>
<g>
</g>
<g>
</g>
<g>
</g>
<g>
</g>
<g>
</g>
<g>
</g>
<g>
</g>
<g>
</g>
<g>
</g>
<g>
</g>
<g>
</g>
<g>
</g>
<g>
</g>
<g>
</g>
<g>
</g>
</svg>
